<svg xmlns="http://www.w3.org/2000/svg" width="97" height="97" viewBox="0 0 97 97">
  <defs>
    <style>
      .cls-1 {
        fill: #566d31;
        fill-rule: evenodd;
      }
    </style>
  </defs>
  <path id="nav-add-active.svg" class="cls-1" d="M3865.5,3856a48.5,48.5,0,1,0,48.5,48.5A48.495,48.495,0,0,0,3865.5,3856Zm28.16,53.97a2.36,2.36,0,0,1-2.35,2.35h-17.99v17.99a2.36,2.36,0,0,1-2.35,2.35h-10.95a2.36,2.36,0,0,1-2.35-2.35v-17.99h-17.99a2.352,2.352,0,0,1-2.34-2.35v-10.95a2.343,2.343,0,0,1,2.34-2.34h17.99v-18a2.352,2.352,0,0,1,2.35-2.34h10.95a2.352,2.352,0,0,1,2.35,2.34v18h17.99a2.352,2.352,0,0,1,2.35,2.34v10.95Z" transform="translate(-3817 -3856)"/>
</svg>
