<svg xmlns="http://www.w3.org/2000/svg" width="102" height="102" viewBox="0 0 102 102">
  <defs>
    <style>
      .cls-1 {
        fill: #566d31;
        fill-rule: evenodd;
      }
    </style>
  </defs>
  <path id="nav-add.svg" class="cls-1" d="M3891.81,3893.67h-15.49v-15.48a4.848,4.848,0,0,0-4.85-4.85h-10.95a4.848,4.848,0,0,0-4.85,4.85v15.48h-15.49a4.865,4.865,0,0,0-4.85,4.85v10.95a4.865,4.865,0,0,0,4.85,4.85h15.49v15.49a4.848,4.848,0,0,0,4.85,4.85h10.95a4.848,4.848,0,0,0,4.85-4.85v-15.49h15.49a4.848,4.848,0,0,0,4.85-4.85v-10.95A4.848,4.848,0,0,0,3891.81,3893.67Zm-20.49,15.65v20.33h-10.64v-20.33h-20.34v-10.64h20.34v-20.34h10.64v20.34h20.33v10.64h-20.33ZM3866,3853a51,51,0,1,0,51,51A50.983,50.983,0,0,0,3866,3853Zm32.52,83.52a46,46,0,1,1,13.47-32.52A45.81,45.81,0,0,1,3898.52,3936.52Z" transform="translate(-3815 -3853)"/>
</svg>
