<svg xmlns="http://www.w3.org/2000/svg" width="88" height="77" viewBox="0 0 88 77">
  <defs>
    <style>
      .cls-1 {
        fill: #566d31;
        fill-rule: evenodd;
      }
    </style>
  </defs>
  <path id="nav-menu-active.svg" class="cls-1" d="M4717.8,3928.83h-81.71a3.139,3.139,0,0,0-3.14,3.14v7.85a3.147,3.147,0,0,0,3.14,3.15h81.71a3.147,3.147,0,0,0,3.14-3.15v-7.85A3.139,3.139,0,0,0,4717.8,3928.83Zm0-31.43h-81.71a3.145,3.145,0,0,0-3.14,3.14v7.86a3.139,3.139,0,0,0,3.14,3.14h81.71a3.139,3.139,0,0,0,3.14-3.14v-7.86A3.145,3.145,0,0,0,4717.8,3897.4Zm0-31.42h-81.71a3.145,3.145,0,0,0-3.14,3.14v7.86a3.145,3.145,0,0,0,3.14,3.14h81.71a3.145,3.145,0,0,0,3.14-3.14v-7.86A3.145,3.145,0,0,0,4717.8,3865.98Z" transform="translate(-4632.94 -3865.97)"/>
</svg>
