<svg xmlns="http://www.w3.org/2000/svg" width="176.97" height="291" viewBox="0 0 176.97 291">
  <defs>
    <style>
      .cls-1 {
        fill: #fff;
        fill-rule: evenodd;
      }
    </style>
  </defs>
  <path id="record-audio.svg" class="cls-1" d="M4600.92,3464.11a10.516,10.516,0,0,0-4.21-3.51,45.35,45.35,0,0,0-11.14-3.42,226.515,226.515,0,0,0-28.65-3.37c-8.98-.6-19.36-1-31.07-1.16v-37.48h2.12a59.088,59.088,0,0,0,58.92-58.95v-56.53a4.5,4.5,0,1,0-8.99,0h0v31.34h-23.92V3227.45a40.544,40.544,0,0,0-40.43-40.46h-1.53a40.559,40.559,0,0,0-40.44,40.46v103.58h-22.61v-31.34a4.5,4.5,0,1,0-8.99,0v56.53a59.081,59.081,0,0,0,58.92,58.95h2.23v37.49c-21.5.3-38.51,1.39-50.74,3.04a89.847,89.847,0,0,0-16.95,3.57,19.25,19.25,0,0,0-5.29,2.64,8.5,8.5,0,0,0-2.09,2.2,6.468,6.468,0,0,0-1.06,3.51,6.278,6.278,0,0,0,1.18,3.64,7.713,7.713,0,0,0,2.17,2.02,16.1,16.1,0,0,0,4.66,1.88,71.859,71.859,0,0,0,11.58,1.68c14.27,1.15,37.35,1.16,68.9,1.16,27.34,0,48.35-.01,62.73-0.76a106.161,106.161,0,0,0,16.83-1.85,18.285,18.285,0,0,0,5.42-2.01,7.9,7.9,0,0,0,2.33-2.12,6.35,6.35,0,0,0,1.18-3.64A6.468,6.468,0,0,0,4600.92,3464.11Zm-111.11-258.88a31.343,31.343,0,0,1,22.21-9.24h1.53a31.565,31.565,0,0,1,31.45,31.46v11.64h-19.34v3H4545v12.15h-19.34v2.99H4545v12.79h-19.34v2.99H4545v13.35h-19.34v3H4545v13.54h-19.34v3H4545v12.78h-19.34v3H4545v26.21a31.582,31.582,0,0,1-31.45,31.47h-1.53a31.582,31.582,0,0,1-31.46-31.47v-26.82h19.34v-2.99h-19.34v-12.79h19.34v-2.99h-19.34v-13.54h19.34v-3h-19.34v-13.35h19.34v-2.99h-19.34v-12.79h19.34v-2.99h-19.34v-12.15h19.34v-3h-19.34v-11.04A31.393,31.393,0,0,1,4489.81,3205.23Zm9.09,200.95a50.1,50.1,0,0,1-49.93-49.96v-16.19h22.61v7.86a40.553,40.553,0,0,0,40.44,40.46h1.53a40.544,40.544,0,0,0,40.43-40.46v-7.86h23.92v16.19a50.1,50.1,0,0,1-49.93,49.96H4498.9Zm11.21,46.38v-37.39h6.75v37.39h-6.75Zm3.38,16.45c-27.32,0-48.31-.01-62.26-0.75-5.3-.27-9.59-0.66-12.7-1.15,1.78-.5,3.94-1.01,6.52-1.48,13.32-2.44,36.54-4.08,68.44-4.08,27.19,0,48.05,1.19,61.89,3.06a99.288,99.288,0,0,1,13.07,2.49c-1.86.29-4.09,0.56-6.74,0.77C4568.17,3468.99,4545.04,3469.01,4513.49,3469.01Z" transform="translate(-4425 -3187)"/>
</svg>
